<svg xmlns="http://www.w3.org/2000/svg" xmlns:xlink="http://www.w3.org/1999/xlink" contentStyleType="text/css" data-diagram-type="CLASS" height="920px" preserveAspectRatio="none" style="width:960px;height:920px;background:#FFFFFF;" version="1.1" viewBox="0 0 960 920" width="960px" zoomAndPan="magnify"><defs xmlns="http://www.w3.org/2000/svg">


<style type="text/css"><![CDATA[
  svg { shape-rendering: geometricPrecision; }
  rect, polygon, ellipse, path { stroke-linejoin: round; stroke-linecap: round; }
  svg text, svg tspan {
    font-family: "DejaVu Sans", "Liberation Sans", "Helvetica Neue", Arial, sans-serif !important;
  }
  
  svg g > rect:not([fill="none"]),
  svg g > polygon:not([fill="none"]) {
    filter: drop-shadow(0 2px 10px rgba(15, 23, 42, 0.08));
  }
  svg g:hover { opacity: 0.99; }
]]></style>
</defs><?plantuml 1.2026.4beta2?><defs><filter height="300%" id="f1p15svu3jg1x2" width="300%" x="-1" y="-1"><feGaussianBlur result="blurOut" stdDeviation="2"/><feColorMatrix in="blurOut" result="blurOut2" type="matrix" values="0 0 0 0 0 0 0 0 0 0 0 0 0 0 0 0 0 0 .4 0"/><feOffset dx="4" dy="4" in="blurOut2" result="blurOut3"/><feBlend in="SourceGraphic" in2="blurOut3" mode="normal"/></filter></defs><g><!--class MemoryTestWindow--><g class="entity" data-qualified-name="MemoryTestWindow" data-source-line="59" id="ent0002"><rect fill="#F8FAFC" filter="url(#f1p15svu3jg1x2)" height="269.5" rx="6" ry="6" style="stroke:#CBD5E1;stroke-width:0.5;" width="564.2871" x="187.85" y="7"/><ellipse cx="410.0536" cy="22" fill="#E0F2FE" rx="10" ry="10" style="stroke:#181818;stroke-width:1;"/><path d="M411.8817,26.25 Q411.4755,26.4531 411.0224,26.5625 Q410.5692,26.6719 410.0849,26.6719 Q408.3036,26.6719 407.3661,25.5156 Q406.4442,24.3438 406.4442,22.1406 Q406.4442,19.9219 407.3661,18.7656 Q408.3036,17.5938 410.0849,17.5938 Q410.5692,17.5938 411.0224,17.7031 Q411.4911,17.7969 411.8817,18.0156 L411.8817,19.9375 Q411.4442,19.5313 411.0224,19.3438 Q410.6005,19.1406 410.163,19.1406 Q409.2099,19.1406 408.7255,19.9063 Q408.2411,20.6563 408.2411,22.1406 Q408.2411,23.6094 408.7255,24.3594 Q409.2099,25.1094 410.163,25.1094 Q410.6005,25.1094 411.0224,24.9219 Q411.4442,24.7344 411.8817,24.3281 L411.8817,26.25 Z " fill="#334155"/><text fill="#334155" font-family="'DejaVu Sans'" font-size="11" lengthAdjust="spacing" textLength="111.8799" x="429.0536" y="25.8081">MemoryTestWindow</text><line style="stroke:#CBD5E1;stroke-width:0.5;" x1="188.85" x2="751.1371" y1="37" y2="37"/><text fill="#334155" font-family="'DejaVu Sans'" font-size="12" lengthAdjust="spacing" textLength="151.2715" x="193.85" y="52.1387">-mainWindow : tkinter.Tk</text><text fill="#334155" font-family="'DejaVu Sans'" font-size="12" lengthAdjust="spacing" textLength="152.9414" x="193.85" y="66.1074">-topframe : tkinter.Frame</text><text fill="#334155" font-family="'DejaVu Sans'" font-size="12" lengthAdjust="spacing" textLength="174.252" x="193.85" y="80.0762">-middleframe : tkinter.Frame</text><text fill="#334155" font-family="'DejaVu Sans'" font-size="12" lengthAdjust="spacing" textLength="176.6777" x="193.85" y="94.0449">-bottomframe : tkinter.Frame</text><text fill="#334155" font-family="'DejaVu Sans'" font-size="12" lengthAdjust="spacing" textLength="3.8145" x="193.85" y="108.0137">&#160;</text><text fill="#334155" font-family="'DejaVu Sans'" font-size="12" lengthAdjust="spacing" textLength="183.7617" x="193.85" y="121.9824">-statusInfoLabel : tkinter.Label</text><text fill="#334155" font-family="'DejaVu Sans'" font-size="12" lengthAdjust="spacing" textLength="169.1367" x="193.85" y="135.9512">-StartButton : tkinter.Button</text><text fill="#334155" font-family="'DejaVu Sans'" font-size="12" lengthAdjust="spacing" textLength="145.7402" x="193.85" y="149.9199">-canvas : tkinter.Canvas</text><line style="stroke:#CBD5E1;stroke-width:0.5;" x1="188.85" x2="751.1371" y1="156.75" y2="156.75"/><text fill="#334155" font-family="'DejaVu Sans'" font-size="12" lengthAdjust="spacing" textLength="99.4629" x="193.85" y="171.8887">+__init__() : void</text><text fill="#334155" font-family="'DejaVu Sans'" font-size="12" lengthAdjust="spacing" textLength="102.2988" x="193.85" y="185.8574">+runTest() : void</text><text fill="#334155" font-family="'DejaVu Sans'" font-size="12" lengthAdjust="spacing" textLength="171.1406" x="193.85" y="199.8262">+countDown(time:int) : void</text><text fill="#334155" font-family="'DejaVu Sans'" font-size="12" lengthAdjust="spacing" textLength="3.8145" x="193.85" y="213.7949">&#160;</text><text fill="#334155" font-family="'DejaVu Sans'" font-size="12" lengthAdjust="spacing" textLength="337.5293" x="193.85" y="227.7637">+prepareObservationPhase(kleurdoos) : List&lt;Vierkant&gt;</text><text fill="#334155" font-family="'DejaVu Sans'" font-size="12" lengthAdjust="spacing" textLength="552.2871" x="193.85" y="241.7324">+runObservationPhase(vierkanten, seqLen:int, timeVisible:int, timeBetween:int) : List&lt;int&gt;</text><text fill="#334155" font-family="'DejaVu Sans'" font-size="12" lengthAdjust="spacing" textLength="342.5918" x="193.85" y="255.7012">+userResponsePhase(vierkanten, seqLen:int) : List&lt;int&gt;</text><text fill="#334155" font-family="'DejaVu Sans'" font-size="12" lengthAdjust="spacing" textLength="363.6738" x="193.85" y="269.6699">+checkUserResponse(userSequence, getoondeReeks) : bool</text></g><!--class Vierkant--><g class="entity" data-qualified-name="Vierkant" data-source-line="82" id="ent0003"><rect fill="#F8FAFC" filter="url(#f1p15svu3jg1x2)" height="171.7188" rx="6" ry="6" style="stroke:#CBD5E1;stroke-width:0.5;" width="374.4609" x="68.77" y="579.18"/><ellipse cx="228.8672" cy="594.18" fill="#E0F2FE" rx="10" ry="10" style="stroke:#181818;stroke-width:1;"/><path d="M230.6953,598.43 Q230.289,598.6331 229.8359,598.7425 Q229.3828,598.8519 228.8984,598.8519 Q227.1172,598.8519 226.1797,597.6956 Q225.2578,596.5238 225.2578,594.3206 Q225.2578,592.1019 226.1797,590.9456 Q227.1172,589.7738 228.8984,589.7738 Q229.3828,589.7738 229.8359,589.8831 Q230.3047,589.9769 230.6953,590.1956 L230.6953,592.1175 Q230.2578,591.7113 229.8359,591.5238 Q229.414,591.3206 228.9765,591.3206 Q228.0234,591.3206 227.539,592.0863 Q227.0547,592.8363 227.0547,594.3206 Q227.0547,595.7894 227.539,596.5394 Q228.0234,597.2894 228.9765,597.2894 Q229.414,597.2894 229.8359,597.1019 Q230.2578,596.9144 230.6953,596.5081 L230.6953,598.43 Z " fill="#334155"/><text fill="#334155" font-family="'DejaVu Sans'" font-size="11" lengthAdjust="spacing" textLength="46.2666" x="247.8672" y="597.9881">Vierkant</text><line style="stroke:#CBD5E1;stroke-width:0.5;" x1="69.77" x2="442.2309" y1="609.18" y2="609.18"/><text fill="#334155" font-family="'DejaVu Sans'" font-size="12" lengthAdjust="spacing" textLength="145.7402" x="74.77" y="624.3187">-canvas : tkinter.Canvas</text><text fill="#334155" font-family="'DejaVu Sans'" font-size="12" lengthAdjust="spacing" textLength="46.3828" x="74.77" y="638.2874">-x1 : int</text><text fill="#334155" font-family="'DejaVu Sans'" font-size="12" lengthAdjust="spacing" textLength="46.3828" x="74.77" y="652.2562">-y1 : int</text><text fill="#334155" font-family="'DejaVu Sans'" font-size="12" lengthAdjust="spacing" textLength="46.3828" x="74.77" y="666.2249">-x2 : int</text><text fill="#334155" font-family="'DejaVu Sans'" font-size="12" lengthAdjust="spacing" textLength="46.3828" x="74.77" y="680.1937">-y2 : int</text><text fill="#334155" font-family="'DejaVu Sans'" font-size="12" lengthAdjust="spacing" textLength="81.3633" x="74.77" y="694.1624">-color : String</text><line style="stroke:#CBD5E1;stroke-width:0.5;" x1="69.77" x2="442.2309" y1="700.9925" y2="700.9925"/><text fill="#334155" font-family="'DejaVu Sans'" font-size="12" lengthAdjust="spacing" textLength="362.4609" x="74.77" y="716.1312">+__init__(canvas, x1:int, y1:int, color:String, zijdeLengte:int)</text><text fill="#334155" font-family="'DejaVu Sans'" font-size="12" lengthAdjust="spacing" textLength="87.498" x="74.77" y="730.0999">+show() : void</text><text fill="#334155" font-family="'DejaVu Sans'" font-size="12" lengthAdjust="spacing" textLength="82.4238" x="74.77" y="744.0687">+hide() : void</text></g><!--class Kleurdoos--><g class="entity" data-qualified-name="Kleurdoos" data-source-line="98" id="ent0004"><rect fill="#F8FAFC" filter="url(#f1p15svu3jg1x2)" height="87.9063" rx="6" ry="6" style="stroke:#CBD5E1;stroke-width:0.5;" width="219.8145" x="146.09" y="383.89"/><ellipse cx="224.6449" cy="398.89" fill="#E0F2FE" rx="10" ry="10" style="stroke:#181818;stroke-width:1;"/><path d="M226.4731,403.14 Q226.0668,403.3431 225.6137,403.4525 Q225.1606,403.5619 224.6762,403.5619 Q222.8949,403.5619 221.9574,402.4056 Q221.0356,401.2338 221.0356,399.0306 Q221.0356,396.8119 221.9574,395.6556 Q222.8949,394.4838 224.6762,394.4838 Q225.1606,394.4838 225.6137,394.5931 Q226.0824,394.6869 226.4731,394.9056 L226.4731,396.8275 Q226.0356,396.4213 225.6137,396.2338 Q225.1918,396.0306 224.7543,396.0306 Q223.8012,396.0306 223.3168,396.7963 Q222.8324,397.5463 222.8324,399.0306 Q222.8324,400.4994 223.3168,401.2494 Q223.8012,401.9994 224.7543,401.9994 Q225.1918,401.9994 225.6137,401.8119 Q226.0356,401.6244 226.4731,401.2181 L226.4731,403.14 Z " fill="#334155"/><text fill="#334155" font-family="'DejaVu Sans'" font-size="11" lengthAdjust="spacing" textLength="54.7046" x="243.6449" y="402.6981">Kleurdoos</text><line style="stroke:#CBD5E1;stroke-width:0.5;" x1="147.09" x2="364.9045" y1="413.89" y2="413.89"/><text fill="#334155" font-family="'DejaVu Sans'" font-size="12" lengthAdjust="spacing" textLength="171.9141" x="152.09" y="429.0287">-vierkanten : List&lt;Vierkant&gt;</text><line style="stroke:#CBD5E1;stroke-width:0.5;" x1="147.09" x2="364.9045" y1="435.8588" y2="435.8588"/><text fill="#334155" font-family="'DejaVu Sans'" font-size="12" lengthAdjust="spacing" textLength="119.7891" x="152.09" y="450.9974">+__init__(aantal:int)</text><text fill="#334155" font-family="'DejaVu Sans'" font-size="12" lengthAdjust="spacing" textLength="207.8145" x="152.09" y="464.9662">+getVierkanten() : List&lt;Vierkant&gt;</text></g><!--class config--><g class="entity" data-qualified-name="config" data-source-line="108" id="ent0005"><rect fill="#FEF2F2" filter="url(#f1p15svu3jg1x2)" height="94.6797" rx="6" ry="6" style="stroke:#FCA5A5;stroke-width:0.5;" width="155.3262" x="471.33" y="380.5"/><ellipse cx="517.1659" cy="398.8867" fill="#E0F2FE" rx="10" ry="10" style="stroke:#181818;stroke-width:1;"/><path d="M518.9941,403.1367 Q518.5878,403.3398 518.1347,403.4492 Q517.6816,403.5586 517.1972,403.5586 Q515.4159,403.5586 514.4784,402.4023 Q513.5566,401.2305 513.5566,399.0273 Q513.5566,396.8086 514.4784,395.6523 Q515.4159,394.4805 517.1972,394.4805 Q517.6816,394.4805 518.1347,394.5898 Q518.6034,394.6836 518.9941,394.9023 L518.9941,396.8242 Q518.5566,396.418 518.1347,396.2305 Q517.7128,396.0273 517.2753,396.0273 Q516.3222,396.0273 515.8378,396.793 Q515.3534,397.543 515.3534,399.0273 Q515.3534,400.4961 515.8378,401.2461 Q516.3222,401.9961 517.2753,401.9961 Q517.7128,401.9961 518.1347,401.8086 Q518.5566,401.6211 518.9941,401.2148 L518.9941,403.1367 Z " fill="#334155"/><text fill="#334155" font-family="DejaVu Sans" font-size="12" font-style="italic" lengthAdjust="spacing" textLength="59.6543" x="534.1659" y="396.6387">&#171;module&#187;</text><text fill="#334155" font-family="'DejaVu Sans'" font-size="11" lengthAdjust="spacing" textLength="33.6606" x="547.1628" y="409.6792">config</text><line style="stroke:#FCA5A5;stroke-width:0.5;" x1="472.33" x2="625.6562" y1="417.2734" y2="417.2734"/><line style="stroke:#FCA5A5;stroke-width:0.5;" x1="472.33" x2="625.6562" y1="425.2734" y2="425.2734"/><text fill="#334155" font-family="'DejaVu Sans'" font-size="12" lengthAdjust="spacing" textLength="125.2031" x="477.33" y="440.4121">+getWindowConfig()</text><text fill="#334155" font-family="'DejaVu Sans'" font-size="12" lengthAdjust="spacing" textLength="143.3262" x="477.33" y="454.3809">+getStartTestSettings()</text><text fill="#334155" font-family="'DejaVu Sans'" font-size="12" lengthAdjust="spacing" textLength="63.7559" x="477.33" y="468.3496">+getSize()</text></g><!--class Canvas--><g class="entity" data-qualified-name="Canvas" data-source-line="117" id="ent0006"><rect fill="#F8FAFC" filter="url(#f1p15svu3jg1x2)" height="46" rx="6" ry="6" style="stroke:#CBD5E1;stroke-width:0.5;" width="110.1851" x="464.9" y="854.9"/><ellipse cx="478.9" cy="869.9" fill="#E0F2FE" rx="10" ry="10" style="stroke:#181818;stroke-width:1;"/><path d="M480.7281,874.15 Q480.3219,874.3531 479.8688,874.4625 Q479.4156,874.5719 478.9313,874.5719 Q477.15,874.5719 476.2125,873.4156 Q475.2906,872.2438 475.2906,870.0406 Q475.2906,867.8219 476.2125,866.6656 Q477.15,865.4938 478.9313,865.4938 Q479.4156,865.4938 479.8688,865.6031 Q480.3375,865.6969 480.7281,865.9156 L480.7281,867.8375 Q480.2906,867.4313 479.8688,867.2438 Q479.4469,867.0406 479.0094,867.0406 Q478.0563,867.0406 477.5719,867.8063 Q477.0875,868.5563 477.0875,870.0406 Q477.0875,871.5094 477.5719,872.2594 Q478.0563,873.0094 479.0094,873.0094 Q479.4469,873.0094 479.8688,872.8219 Q480.2906,872.6344 480.7281,872.2281 L480.7281,874.15 Z " fill="#334155"/><text fill="#334155" font-family="'DejaVu Sans'" font-size="11" lengthAdjust="spacing" textLength="80.1851" x="491.9" y="873.7081">tkinter.Canvas</text><line style="stroke:#CBD5E1;stroke-width:0.5;" x1="465.9" x2="574.0851" y1="884.9" y2="884.9"/><line style="stroke:#CBD5E1;stroke-width:0.5;" x1="465.9" x2="574.0851" y1="892.9" y2="892.9"/></g><!--class Tk--><g class="entity" data-qualified-name="Tk" data-source-line="118" id="ent0007"><rect fill="#F8FAFC" filter="url(#f1p15svu3jg1x2)" height="46" rx="6" ry="6" style="stroke:#CBD5E1;stroke-width:0.5;" width="82.8999" x="857.55" y="118.75"/><ellipse cx="871.55" cy="133.75" fill="#E0F2FE" rx="10" ry="10" style="stroke:#181818;stroke-width:1;"/><path d="M873.3781,138 Q872.9719,138.2031 872.5188,138.3125 Q872.0656,138.4219 871.5813,138.4219 Q869.8,138.4219 868.8625,137.2656 Q867.9406,136.0938 867.9406,133.8906 Q867.9406,131.6719 868.8625,130.5156 Q869.8,129.3438 871.5813,129.3438 Q872.0656,129.3438 872.5188,129.4531 Q872.9875,129.5469 873.3781,129.7656 L873.3781,131.6875 Q872.9406,131.2813 872.5188,131.0938 Q872.0969,130.8906 871.6594,130.8906 Q870.7063,130.8906 870.2219,131.6563 Q869.7375,132.4063 869.7375,133.8906 Q869.7375,135.3594 870.2219,136.1094 Q870.7063,136.8594 871.6594,136.8594 Q872.0969,136.8594 872.5188,136.6719 Q872.9406,136.4844 873.3781,136.0781 L873.3781,138 Z " fill="#334155"/><text fill="#334155" font-family="'DejaVu Sans'" font-size="11" lengthAdjust="spacing" textLength="52.8999" x="884.55" y="137.5581">tkinter.Tk</text><line style="stroke:#CBD5E1;stroke-width:0.5;" x1="858.55" x2="939.4499" y1="148.75" y2="148.75"/><line style="stroke:#CBD5E1;stroke-width:0.5;" x1="858.55" x2="939.4499" y1="156.75" y2="156.75"/></g><!--reverse link MemoryTestWindow to Canvas--><g class="link" data-entity-1="ent0002" data-entity-2="ent0006" data-link-type="composition" data-source-line="125" id="lnk8"><path codeLine="125" d="M631.9372,286.3932 C656.2572,317.3232 669.19,342.88 679,380.5 C727.39,566.14 586.59,784.74 536.76,854.4" fill="none" id="MemoryTestWindow-backto-Canvas" style="stroke:#64748B;stroke-width:1;"/><polygon fill="#64748B" points="624.52,276.96,625.0842,284.149,631.9372,286.3932,631.373,279.2042,624.52,276.96" style="stroke:#64748B;stroke-width:1;"/></g><!--link MemoryTestWindow to Kleurdoos--><g class="link" data-entity-1="ent0002" data-entity-2="ent0004" data-link-type="dependency" data-source-line="128" id="lnk9"><path codeLine="128" d="M368.95,276.89 C339.84,315.54 313.7507,350.178 292.1107,378.898" fill="none" id="MemoryTestWindow-to-Kleurdoos" style="stroke:#64748B;stroke-width:1;"/><polygon fill="#64748B" points="288.5,383.69,297.1107,378.9091,291.5089,379.6967,290.7214,374.0949,288.5,383.69" style="stroke:#64748B;stroke-width:1;"/><text fill="#475569" font-family="'DejaVu Sans'" font-size="11" lengthAdjust="spacing" textLength="45.9658" x="333" y="332.7104">gebruikt</text></g><!--link MemoryTestWindow to Vierkant--><g class="link" data-entity-1="ent0002" data-entity-2="ent0003" data-link-type="dependency" data-source-line="131" id="lnk10"><path codeLine="131" d="M187.37,246.46 C131.41,280.41 79.86,324.33 47,380.5 C6,450.57 59.1259,520.3507 124.2059,575.0207" fill="none" id="MemoryTestWindow-to-Vierkant" style="stroke:#64748B;stroke-width:1;"/><polygon fill="#64748B" points="128.8,578.88,124.4816,570.0283,124.9716,575.6639,119.336,576.1539,128.8,578.88" style="stroke:#64748B;stroke-width:1;"/><text fill="#475569" font-family="'DejaVu Sans'" font-size="11" lengthAdjust="spacing" textLength="45.9658" x="48" y="432.0504">gebruikt</text><text fill="#475569" font-family="'DejaVu Sans'" font-size="11" lengthAdjust="spacing" textLength="19.4917" x="97.2206" y="568.6316">0..*</text></g><!--reverse link Kleurdoos to Vierkant--><g class="link" data-entity-1="ent0004" data-entity-2="ent0003" data-link-type="composition" data-source-line="134" id="lnk11"><path codeLine="134" d="M256,484.25 C256,514.12 256,542.77 256,578.97" fill="none" id="Kleurdoos-backto-Vierkant" style="stroke:#64748B;stroke-width:1;"/><polygon fill="#64748B" points="256,472.25,252,478.25,256,484.25,260,478.25,256,472.25" style="stroke:#64748B;stroke-width:1;"/><text fill="#475569" font-family="'DejaVu Sans'" font-size="11" lengthAdjust="spacing" textLength="31.3135" x="257" y="531.3904">bevat</text><text fill="#475569" font-family="'DejaVu Sans'" font-size="11" lengthAdjust="spacing" textLength="19.4917" x="236.1179" y="568.4434">1..*</text></g><!--link Vierkant to Canvas--><g class="link" data-entity-1="ent0003" data-entity-2="ent0006" data-link-type="dependency" data-source-line="137" id="lnk12"><path codeLine="137" d="M362.61,751.2 C409.7,788.8 456.5618,826.2355 487.4118,850.8755" fill="none" id="Vierkant-to-Canvas" style="stroke:#64748B;stroke-width:1;"/><polygon fill="#64748B" points="492.1,854.62,487.564,845.8779,488.1932,851.4996,482.5714,852.1288,492.1,854.62" style="stroke:#64748B;stroke-width:1;"/><text fill="#475569" font-family="'DejaVu Sans'" font-size="11" lengthAdjust="spacing" textLength="45.9658" x="435" y="807.1104">gebruikt</text></g><!--link MemoryTestWindow to config--><g class="link" data-entity-1="ent0002" data-entity-2="ent0005" data-link-type="dependency" data-source-line="140" id="lnk13"><path codeLine="140" d="M507.3,276.89 C517.61,313.96 526.5024,345.9594 534.3924,374.3294" fill="none" id="MemoryTestWindow-to-config" style="stroke:#64748B;stroke-width:1;stroke-dasharray:7,7;"/><polygon fill="#64748B" points="536,380.11,537.4423,370.3673,534.6603,375.2928,529.7348,372.5109,536,380.11" style="stroke:#64748B;stroke-width:1;"/><text fill="#475569" font-family="'DejaVu Sans'" font-size="11" lengthAdjust="spacing" textLength="95.02" x="524" y="332.7104">haalt instellingen</text></g><?plantuml-src ZLVRSk8u47tdArJimv2PG049kL2pgI84JwM6P5A1P1zJmkw0naPY91c6sTf_txPy4zZ4v2LHdzCNjOvQpYVIR3R9Kq2vVdaOarS66v1zicOgf07H2rW2QT1GYvE8MFjaw6f5NSRdv0jHUXk0GPJF-8fAkYGUlDCmq8xW-f6YU_qEVjBNa4meL_LoteJz0TBfbeD34GX9_ZexE-_qUXPb8ANOL6R9M76EJXcKP3Y_xFKkhajzpJQva4iQMFYKwG0gAyXOSGMzCYYfeFtUkUnIYp26EN2lCaLEA-uonmurSXXGfIfpPAnYYWmwc44iLu83hnR53hCaamqVolP4NP_Egm_6uXKpMU3XledGEw9l2QkiRmbqACEZqDNRI4d5-2boIDzgGJsnYMwobY5OW1GXzrmXESZTQyc51mfMfDEsovIK-v7rkhr_UPBC5-UNvrUt--1qmLoVWrB4Bbffa23qTWN3Mpo3kQabYJDgErrdL4wshz7PnVMW8D12DEVA6JZ30ar83sH26TxUzKQb0ZmYMaRzC68YjEfuAT6EDkgEhfpslgIAiNhEcUCKQ1_M5OcdkYZ3AgaeUIYouo7KTR4LQk-jSAEEV_sw55uOmCqD-RT6I37f24-z6o5s8cSuw0rwjV_semsqbcmMQhXt1JTtebt3Slu-z8FOmu-xb_6eJvQKSTBuzdAFBniwQoc20EJ9Xzuc9tc0fP3RAIZz3-Dufyn6cYPWOkWJZNLYFrfJts1QhDvbTAzpn8dMiIFpl00EupEXjLYMuuQWDDMXkkVlOand45WaipQSYQPItuOOYLjuR304b_8rLHOsD8OemnVoziOuqszlZHCah0NpZ5M6FEh2hj75mzHtOiCRcYsXZx4osE0h2NY0y6EcGAwfPe8_BQY2XXz0A3qXL4GVCwM_ulU9zF5RvIPDLl1P9mpWfqJ1hp7mADyfYJA_CiLc0UI6Mz0RY1bP2fP63p7oCoYymme-YbtqT1VW-Y-MUoEADO5V8N0NJiaSj13SWsS0t-nj9aI0IZvIfcly3W7UMcsF46RQi4IGXquqmdvtq8vMizZQYzzT6x4NhhcBVPIIn6TaJnXnibCC77Tyc_msJltOvPJyOJyzm5RETQmC4qCjn6PNGmlcGMuvkbUPX8vhr_UKdlGhF_6Y0dStIz56Wtm7UCQlcNEZHC17Rm4dqJkR7rT_p2Lx4zLK4y-XeI4qiXhD38Xkx0IqnlDG5eIp4rULTKw_tpzEHy-aiSPX3toDBmkRUyTCpVgk2ki4fPa8SeymzGs8exEYcEVHU32z7qq-f24O3VabfRucUBHpcCcGuT-nOck5QVuPtx9qziM-cKiciA9NitbZ2QgV-HHYM2h36KFpc2VbGUljLkjpFR_Rkw7pb3F0oMX5h-LGjADwPp-CSOXYP3ODFZxRHApItcH8LCWm7ITs_bXY-1_S2l_lm86tBMwYrRf9fTed2qe3ZHC5FnQ202K8_7y0?></g></svg>